Coordinates
version=1
nRows=16
nColumns=40
inDegrees=yes

Units are S.I. units (second, meters, Newtons, ...)
Angles are in degrees.

endheader
time	pelvis_tilt	pelvis_list	pelvis_rotation	pelvis_tx	pelvis_ty	pelvis_tz	hip_flexion_r	hip_adduction_r	hip_rotation_r	knee_angle_r	knee_angle_r_beta	ankle_angle_r	subtalar_angle_r	mtp_angle_r	hip_flexion_l	hip_adduction_l	hip_rotation_l	knee_angle_l	knee_angle_l_beta	ankle_angle_l	subtalar_angle_l	mtp_angle_l	lumbar_extension	lumbar_bending	lumbar_rotation	arm_flex_r	arm_add_r	arm_rot_r	elbow_flex_r	pro_sup_r	wrist_flex_r	wrist_dev_r	arm_flex_l	arm_add_l	arm_rot_l	elbow_flex_l	pro_sup_l	wrist_flex_l	wrist_dev_l
     26.57000000	     -5.12657140	     -5.98286778	      5.92946277	      0.96949320	      0.92022369	      0.48505809	     -1.05325013	      0.59801193	    -18.97819382	     16.05045354	     16.05045354	     15.64373411	     -3.36099610	     -2.18529005	     26.61978620	     -5.42532855	      4.67806627	     29.03144310	     29.03144310	     11.08272860	    -12.01119385	      3.20993811	     -8.23055292	      2.87426450	      3.39308396	     52.54891245	    -16.05340236	     -3.57877842	    100.97783414	     44.66116947	      0.00000000	      0.00000000	     -9.28633110	     -9.60211745	     -0.68382035	     39.80085921	     45.44590296	      0.00000000	      0.00000000
     26.58885714	     -5.18142004	     -5.95355732	      5.51745225	      0.96952569	      0.92126234	      0.48124220	     -0.85248971	      0.07514897	    -18.73604650	     17.01287128	     17.01287128	     15.29515913	     -3.44839181	     -2.39013459	     25.95291666	     -5.31892014	      4.22530269	     28.64341749	     28.64341749	     11.39308892	    -12.01664222	      3.28626784	     -8.17647162	      2.84840519	      3.45225041	     51.88283286	    -15.79339099	     -3.45185761	     99.64667195	     44.70170614	      0.00000000	      0.00000000	     -8.10980780	     -9.95893866	     -0.98035110	     40.91677121	     45.50855167	      0.00000000	      0.00000000
     26.60771429	     -5.28011482	     -5.93606204	      5.10805082	      0.96923923	      0.92221372	      0.47741012	     -0.44449714	     -0.47533029	    -18.41017998	     18.19546853	     18.19546853	     14.81722938	     -3.68877100	     -2.67501300	     25.37880110	     -5.19281003	      3.87947761	     28.30047543	     28.30047543	     11.71658992	    -11.92267501	      3.27712856	     -8.14080707	      2.86157968	      3.38741246	     51.28918809	    -15.53534281	     -3.37737122	     98.02173853	     44.75410922	      0.00000000	      0.00000000	     -6.96340383	    -10.39267809	     -1.27086190	     42.08196534	     45.57147351	      0.00000000	      0.00000000
     26.62657143	     -5.20591299	     -6.11850409	      4.82526622	      0.96911588	      0.92332705	      0.47360708	     -0.34201559	     -0.72228555	    -18.25305669	     19.11154244	     19.11154244	     14.31714031	     -3.84265164	     -2.76729773	     24.69493292	     -5.26125764	      3.64138393	     28.03070742	     28.03070742	     12.02605872	    -11.90788143	      3.24158819	     -8.26559100	      3.17839253	      3.14997435	     50.39468883	    -15.16226678	     -3.15975732	     97.30090513	     44.76738459	      0.00000000	      0.00000000	     -5.55204015	    -10.84015022	     -1.40818565	     42.74170511	     45.60921306	      0.00000000	      0.00000000
     26.64542857	     -5.30334104	     -5.77379744	      4.32771742	      0.96868899	      0.92407547	      0.46986835	      0.59642643	     -1.74343616	    -17.59023457	     21.30334429	     21.30334429	     13.90207580	     -4.88204603	     -3.38548255	     23.97385358	     -4.87530868	      2.84988510	     27.50027795	     27.50027795	     12.30509283	    -11.60577466	      3.15813769	     -8.13631587	      2.79133554	      3.18866701	     49.50396042	    -15.18404282	     -3.25613216	     94.89551295	     44.84750434	      0.00000000	      0.00000000	     -4.24566366	    -11.28637034	     -1.55257690	     43.65331818	     45.65461221	      0.00000000	      0.00000000
     26.66428571	     -5.29899000	     -5.72237397	      3.95885612	      0.96830222	      0.92475705	      0.46616674	      1.34946163	     -2.33361925	    -17.01076185	     23.24511548	     23.24511548	     13.25252632	     -6.14373482	     -4.07806910	     23.33831946	     -4.73811416	      2.31184439	     27.21916082	     27.21916082	     12.60213414	    -11.52197140	      3.02778957	     -8.06460681	      2.84712287	      2.84331796	     48.60119746	    -14.73361209	     -3.24056419	     92.45684816	     44.92606976	      0.00000000	      0.00000000	     -2.86909144	    -11.77548586	     -1.54641798	     44.25419761	     45.68697835	      0.00000000	      0.00000000
     26.68314286	     -5.23408800	     -5.58019172	      3.58218053	      0.96783566	      0.92548628	      0.46251021	      2.21312877	     -3.04204931	    -16.35810449	     25.47608726	     25.47608726	     12.44276302	     -7.47342813	     -4.71867122	     22.60531601	     -4.49847464	      1.84028936	     26.88325054	     26.88325054	     12.85244053	    -11.35614728	      2.94021762	     -8.13072910	      2.81488261	      2.55440030	     47.42783692	    -14.40548895	     -3.17302543	     90.41411406	     44.98780319	      0.00000000	      0.00000000	     -1.37341147	    -12.29305509	     -1.49884093	     44.54327876	     45.71129258	      0.00000000	      0.00000000
     26.70200000	     -5.16131236	     -5.36523485	      3.16907141	      0.96737372	      0.92600365	      0.45893775	      3.30663694	     -3.82568119	    -15.56438672	     28.10110590	     28.10110590	     11.53006105	     -9.21824531	     -5.39904299	     21.90078008	     -4.17593269	      1.34411390	     26.63806327	     26.63806327	     13.11558635	    -11.30112026	      2.86799432	     -8.14584464	      2.71571277	      2.32896246	     46.03467024	    -14.14479770	     -3.14260971	     88.21448771	     45.05434452	      0.00000000	      0.00000000	      0.24261051	    -12.76070692	     -1.34653520	     44.55998856	     45.72387887	      0.00000000	      0.00000000
     26.72085714	     -5.01868960	     -5.29882227	      2.80511976	      0.96689908	      0.92640515	      0.45546860	      4.42419127	     -4.40965177	    -14.90198016	     30.84154278	     30.84154278	     10.41316743	    -11.20580862	     -5.98832364	     21.21054801	     -3.97687403	      0.96047402	     26.49933501	     26.49933501	     13.46365549	    -11.45826067	      2.82310164	     -8.21621426	      2.80010915	      2.04453118	     44.44248864	    -13.84547009	     -3.11428297	     85.96613200	     45.12126323	      0.00000000	      0.00000000	      1.98127321	    -13.17777326	     -1.07628543	     44.33205195	     45.72418488	      0.00000000	      0.00000000
     26.73971429	     -4.82157451	     -5.26466541	      2.42486326	      0.96632944	      0.92674638	      0.45211539	      5.61962594	     -4.84830112	    -13.99853017	     33.67349957	     33.67349957	      8.69468240	    -13.95273065	     -7.22790325	     20.55210853	     -3.77891020	      0.76844500	     26.51144687	     26.51144687	     13.79444986	    -11.81449890	      2.97641815	     -8.25003280	      2.99992854	      1.72347425	     43.08394102	    -13.21210853	     -3.34735255	     82.11234255	     45.25155444	      0.00000000	      0.00000000	      4.25130926	    -13.59049012	      0.15833456	     42.50930334	     45.64488801	      0.00000000	      0.00000000
     26.75857143	     -4.61666924	     -5.03885727	      1.97988283	      0.96581341	      0.92667338	      0.44883628	      7.09846455	     -5.66232106	    -13.40830926	     37.10096181	     37.10096181	      7.47038357	    -15.78555759	     -7.33900987	     19.89623794	     -3.39222339	      0.45007955	     26.59123752	     26.59123752	     14.19758562	    -12.16094016	      2.96510940	     -8.39759588	      2.94106779	      1.58683154	     40.90765545	    -13.10127578	     -3.19520222	     80.40515082	     45.29334856	      0.00000000	      0.00000000	      5.89551122	    -13.93908636	      0.35061170	     42.56467932	     45.65333613	      0.00000000	      0.00000000
     26.77742857	     -4.36898605	     -4.95468436	      1.53964368	      0.96512669	      0.92645814	      0.44562769	      8.68753036	     -6.25191182	    -12.76190712	     40.68677099	     40.68677099	      6.52347355	    -17.52315023	     -5.94943740	     19.34842298	     -3.05562494	      0.49735969	     26.89527003	     26.89527003	     14.60581461	    -13.09987475	      3.42773031	     -8.49589809	      3.11453093	      1.66132384	     38.98612365	    -12.94032790	     -3.45395163	     76.67633362	     45.41496327	      0.00000000	      0.00000000	      8.27874962	    -14.14924355	      1.65283889	     40.94904092	     45.56636233	      0.00000000	      0.00000000
     26.79628571	     -4.10694077	     -4.78033324	      1.05909054	      0.96441801	      0.92586140	      0.44260888	     10.57257122	     -6.94581229	    -12.08753912	     44.79263247	     44.79263247	      6.92747145	    -18.22460169	     -0.85401540	     18.85543913	     -2.68408011	      0.34306842	     27.35950452	     27.35950452	     15.32519997	    -13.60765435	      4.12578562	     -8.66076186	      3.19381293	      1.78881741	     36.63022042	    -12.81785835	     -3.69003517	     73.99117849	     45.48831680	      0.00000000	      0.00000000	     10.52350707	    -14.50967924	      3.71747686	     39.87136845	     45.46038313	      0.00000000	      0.00000000
     26.81514286	     -3.80325773	     -4.64445360	      0.57910221	      0.96366187	      0.92488719	      0.43970859	     12.46145599	     -7.57720980	    -11.47352070	     48.79451935	     48.79451935	      7.22809895	    -18.74349629	      3.79994579	     18.45578945	     -2.29645809	      0.36693017	     28.04203589	     28.04203589	     15.94697756	    -14.56357676	      4.64597556	     -8.84009509	      3.32122902	      1.69795499	     34.44220039	    -12.49248363	     -3.75504705	     70.46332364	     45.58519093	      0.00000000	      0.00000000	     12.44746315	    -14.70748377	      4.71351315	     39.04755083	     45.43813895	      0.00000000	      0.00000000
     26.83400000	     -3.39275149	     -4.51921192	      0.08041098	      0.96295323	      0.92370087	      0.43692339	     14.21448063	     -8.16503820	    -10.90355740	     52.53461900	     52.53461900	      7.42814989	    -19.09258593	      7.70996890	     18.00475639	     -1.90814413	      0.42597788	     28.85107029	     28.85107029	     16.61269926	    -15.58783728	      5.15377459	     -9.16728166	      3.47087687	      1.96224743	     32.01667178	    -12.69466264	     -3.75743716	     66.98123842	     45.68100309	      0.00000000	      0.00000000	     14.34351495	    -14.70301243	      5.25815633	     38.99130485	     45.44201477	      0.00000000	      0.00000000
     26.85285714	     -3.06394185	     -4.42013247	     -0.43083943	      0.96213972	      0.92207654	      0.43442241	     16.15743262	     -8.60222831	    -10.21927200	     56.16330186	     56.16330186	      8.25420539	    -19.27328109	     13.09436628	     17.77178458	     -1.61513127	      0.29197088	     29.89481619	     29.89481619	     17.59951848	    -16.17216833	      5.98903820	     -9.39347881	      3.66710304	      1.70507294	     29.74046460	    -12.24504392	     -3.73220867	     63.25680483	     45.77433781	      0.00000000	      0.00000000	     15.98188171	    -14.94384518	      6.02707611	     38.62875389	     45.43644501	      0.00000000	      0.00000000
